<!DOCTYPE svg PUBLIC "-//W3C//DTD SVG 1.1//EN" "http://www.w3.org/Graphics/SVG/1.1/DTD/svg11.dtd">
<!-- Uploaded to: SVG Repo, www.svgrepo.com, Transformed by: SVG Repo Mixer Tools -->
<svg fill="#000000" height="800px" width="800px" version="1.1" id="Layer_1" xmlns="http://www.w3.org/2000/svg" xmlns:xlink="http://www.w3.org/1999/xlink" viewBox="0 0 511.644 511.644" xml:space="preserve" transform="matrix(-1, 0, 0, 1, 0, 0)rotate(90)">
<g id="SVGRepo_bgCarrier" stroke-width="0"/>
<g id="SVGRepo_tracerCarrier" stroke-linecap="round" stroke-linejoin="round"/>
<g id="SVGRepo_iconCarrier"> <g transform="translate(1 1)"> <g> <g> <path d="M348.048,170.285c-3.413,3.413-3.413,8.533,0,11.947s8.533,3.413,11.947,0c3.413-3.413,3.413-8.533,0-11.947 C356.581,166.872,351.461,166.872,348.048,170.285z"/> <path d="M421.435,96.898c-3.413,3.413-3.413,8.533,0,11.947s8.533,3.413,11.947,0c3.413-3.413,3.413-8.533,0-11.947 C429.968,93.485,424.848,93.485,421.435,96.898z"/> <path d="M234.555,296.578l-71.68,71.68c-3.413,3.413-3.413,8.533,0,11.947c1.707,1.707,3.413,2.56,5.973,2.56 s4.267-0.853,5.973-2.56l71.68-71.68c3.413-3.413,3.413-8.533,0-11.947C243.088,293.165,237.968,293.165,234.555,296.578z"/> <path d="M492.261,37.165c-21.333-22.187-53.76-24.747-71.68-6.827c-9.387,9.387-13.653,23.04-11.093,37.547L300.261,176.258 c-1.18,1.18-1.942,2.566-2.306,4.013L1.595,476.632c-2.56,2.56-3.413,5.973-1.707,9.387s4.267,5.12,7.68,5.12 c96.427-8.533,186.88-51.2,256-119.467l116.053-116.053c3.413-3.413,3.413-8.533,0-11.947l-21.31-21.31l103.23-102.423 c14.507,2.56,28.16-1.707,37.547-11.093C517.008,90.925,513.595,58.498,492.261,37.165z M251.621,359.725 c-59.733,59.733-137.387,98.987-220.16,111.787l275.627-276.48l33.28,33.28l21.333,21.333L251.621,359.725z M487.141,96.045 c-5.973,6.827-16.213,8.533-26.453,5.973c-2.56,0-5.973,0.853-7.68,2.56L347.195,211.245l-28.16-28.16l104.96-107.52 c2.56-1.707,3.413-5.12,2.56-7.68c-2.56-10.24,0-20.48,5.973-26.453c11.093-11.093,32.427-8.533,47.787,6.827 C495.675,63.618,498.235,84.952,487.141,96.045z"/> </g> </g> </g> </g>
</svg>